<svg xmlns="http://www.w3.org/2000/svg" width="99" height="36" viewBox="0 0 99 36" fill="none"><path d="M50.3276 16.4744V13.2986H44.0836L50.1768 7.06378V4.07481H39.6657V7.23892H45.5843L39.4453 13.4854V16.4744H50.3276ZM57.5128 16.7663C58.5338 16.7663 59.4483 16.6495 60.2566 16.416C61.0648 16.1825 61.7532 15.8653 62.3217 15.4644C62.8901 15.0636 63.3368 14.6121 63.6616 14.1101C63.9865 13.608 64.1721 13.0884 64.2185 12.5514H60.1348C60.1116 12.6837 60.0516 12.8179 59.9549 12.9542C59.8583 13.0904 59.7152 13.2149 59.5257 13.3278C59.3362 13.4406 59.0887 13.5321 58.7832 13.6022C58.4777 13.6722 58.1122 13.7072 57.6868 13.7072C56.9985 13.7072 56.4339 13.5691 55.993 13.2928C55.5521 13.0164 55.2254 12.6156 55.0127 12.0902C54.9343 11.8966 54.8704 11.6885 54.8209 11.4659L54.8209 11.4657L64.3461 11.4655C64.3597 11.377 64.3702 11.2616 64.3779 11.1194L64.3809 11.0569C64.3887 10.8856 64.3925 10.6949 64.3925 10.4848C64.3925 9.13816 64.1141 7.9667 63.5572 6.97038C63.0004 5.97405 62.2076 5.20151 61.1789 4.65276C60.1502 4.104 58.9282 3.82962 57.5128 3.82962C56.1438 3.82962 54.9392 4.10011 53.8989 4.64108C52.8587 5.18205 52.0485 5.93708 51.4684 6.90616C50.8883 7.87524 50.5983 9.00584 50.5983 10.2979C50.5983 11.5667 50.8825 12.6876 51.451 13.6605C52.0195 14.6335 52.8219 15.3944 53.8583 15.9431C54.8947 16.4919 56.1129 16.7663 57.5128 16.7663ZM60.1908 8.86184H54.8545L54.8732 8.79508C54.9073 8.67796 54.9464 8.56541 54.9904 8.45743L55.0243 8.3773C55.2447 7.87524 55.5695 7.49384 55.9988 7.23308C56.4281 6.97232 56.9521 6.84195 57.5708 6.84195C58.1973 6.84195 58.7039 6.95676 59.0906 7.18638C59.4773 7.416 59.7597 7.704 59.9375 8.05038C60.0646 8.29779 60.1463 8.5462 60.1826 8.7956L60.1908 8.86184ZM71.9838 16.7546C72.4015 16.7546 72.7689 16.7215 73.086 16.6554C73.4031 16.5892 73.6467 16.5211 73.8169 16.451V13.392C73.7009 13.4387 73.523 13.4893 73.2832 13.5438C73.0434 13.5983 72.7882 13.6255 72.5175 13.6255C72.0302 13.6255 71.7286 13.4621 71.6126 13.1351C71.4966 12.8082 71.4386 12.3996 71.4386 11.9092V7.22724H74.919V4.07481H71.4386V0H67.2852V1.14422C67.2852 1.84476 67.2601 2.39157 67.2098 2.78465C67.1595 3.17773 67.057 3.46768 66.9023 3.65449C66.7477 3.8413 66.5118 3.95805 66.1946 4.00476C65.8775 4.05146 65.4521 4.07481 64.9185 4.07481H64.4892V7.22724H67.2852V13.0301C67.2852 13.8551 67.4321 14.5168 67.7261 15.0149C68.02 15.5131 68.4028 15.8867 68.8746 16.1358C69.3464 16.3849 69.8569 16.5503 70.406 16.632C70.9552 16.7137 71.4811 16.7546 71.9838 16.7546ZM81.7098 16.7546C82.1275 16.7546 82.4948 16.7215 82.812 16.6554C83.1291 16.5892 83.3727 16.5211 83.5429 16.451V13.392C83.4268 13.4387 83.2489 13.4893 83.0092 13.5438C82.7694 13.5983 82.5142 13.6255 82.2435 13.6255C81.7562 13.6255 81.4546 13.4621 81.3386 13.1351C81.2225 12.8082 81.1645 12.3996 81.1645 11.9092V7.22724H84.645V4.07481H81.1645V0H77.0112V1.14422C77.0112 1.84476 76.986 2.39157 76.9358 2.78465C76.8855 3.17773 76.783 3.46768 76.6283 3.65449C76.4736 3.8413 76.2377 3.95805 75.9206 4.00476C75.6035 4.05146 75.1781 4.07481 74.6445 4.07481H74.2152V7.22724H77.0112V13.0301C77.0112 13.8551 77.1581 14.5168 77.452 15.0149C77.7459 15.5131 78.1288 15.8867 78.6006 16.1358C79.0724 16.3849 79.5829 16.5503 80.132 16.632C80.6811 16.7137 81.2071 16.7546 81.7098 16.7546ZM90.9253 16.7663C91.8844 16.7663 92.77 16.5366 93.5821 16.0774C94.0032 15.8393 94.3827 15.5457 94.7206 15.1967L94.7306 15.1862V16.4744H98.8724V4.07481H94.7306V5.48407L94.7206 5.47307C94.4068 5.14167 94.0572 4.85538 93.6717 4.61421L93.5821 4.55935C92.77 4.07287 91.8844 3.82962 90.9253 3.82962C90.1828 3.82962 89.4616 3.96584 88.7616 4.23827C88.0617 4.5107 87.4332 4.91546 86.8764 5.45254C86.3195 5.98962 85.8767 6.65319 85.548 7.44324C85.2193 8.2333 85.0549 9.14984 85.0549 10.1929C85.0549 11.2826 85.2154 12.2381 85.5364 13.0592C85.8574 13.8804 86.2924 14.5654 86.8416 15.1142C87.3907 15.6629 88.0172 16.0755 88.721 16.3518C89.4248 16.6281 90.1596 16.7663 90.9253 16.7663ZM92.1667 13.2869C91.7104 13.2869 91.2714 13.1799 90.8499 12.9658C90.4284 12.7518 90.0861 12.419 89.8232 11.9676C89.5602 11.5161 89.4287 10.9401 89.4287 10.2396C89.4287 9.52346 89.5602 8.95135 89.8232 8.52324C90.0861 8.09514 90.4284 7.78378 90.8499 7.58919C91.2714 7.3946 91.7104 7.2973 92.1667 7.2973C92.5921 7.2973 93.002 7.38681 93.3964 7.56584C93.7909 7.74487 94.1119 8.0173 94.3594 8.38314C94.6069 8.74897 94.7306 9.22378 94.7306 9.80757V9.936V10.7183C94.7306 11.2943 94.6088 11.773 94.3652 12.1544C94.1215 12.5358 93.8025 12.8199 93.408 13.0067C93.0136 13.1935 92.5998 13.2869 92.1667 13.2869Z" fill="white"></path><path fill-rule="evenodd" clip-rule="evenodd" d="M31.7109 4.08649V6.03243C31.7109 11.1167 29.3482 15.6455 25.6675 18.5676C29.1813 19.7629 31.7109 23.1085 31.7109 27.0486C31.7109 31.9429 27.808 35.9198 22.9635 35.9988L22.8164 36H0V34.0541C0 28.9698 2.36274 24.441 6.04349 21.5189C2.52962 20.3236 0 16.978 0 13.0378C0 8.14358 3.90297 4.16673 8.74744 4.08769L8.89453 4.08649H31.7109ZM22.8164 21.9892H15.8555C9.95621 21.9892 5.05216 26.2774 4.05317 31.9255L4.02226 32.1081H22.8164C25.5377 32.1081 27.754 29.9322 27.8411 27.2148L27.8431 27.1323L27.8438 27.0486C27.8438 24.2823 25.6377 22.0345 22.8995 21.9899L22.8164 21.9892ZM27.6885 7.97838H8.89453C6.11801 7.97838 3.86719 10.2436 3.86719 13.0378C3.86719 15.8042 6.07321 18.0519 8.81139 18.0966L8.89453 18.0973H15.8555C21.7547 18.0973 26.6588 13.8091 27.6578 8.16098L27.6885 7.97838Z" fill="url(#paint0_linear_261_2426)"></path><path d="M92.4412 22.8182C93.7252 22.8182 94.837 23.0906 95.7767 23.6355C96.7164 24.1803 97.4415 24.9315 97.952 25.8889C98.4625 26.8463 98.7177 27.9477 98.7177 29.1931C98.7177 29.341 98.7138 29.5122 98.7061 29.7068L98.7039 29.7583C98.6962 29.925 98.6853 30.0401 98.6713 30.1038H88.4882L88.4956 30.1555C88.5718 30.6605 88.7113 31.1162 88.9144 31.5224C89.2392 32.1723 89.7071 32.6724 90.3182 33.0227C90.9292 33.373 91.6601 33.5481 92.5109 33.5481C93.1064 33.5481 93.6227 33.4878 94.0597 33.3671C94.4967 33.2465 94.8563 33.085 95.1386 32.8826C95.4209 32.6802 95.6355 32.4603 95.7825 32.2229C95.9295 31.9855 96.0145 31.7501 96.0377 31.5166H98.5437L98.5336 31.6113C98.4763 32.085 98.3153 32.5535 98.0506 33.0169C97.7683 33.5111 97.37 33.9587 96.8556 34.3596C96.3413 34.7604 95.7148 35.0796 94.9762 35.317C94.2376 35.5544 93.3887 35.6731 92.4296 35.6731C91.1457 35.6731 90.0204 35.4007 89.0536 34.8558C88.0868 34.3109 87.3327 33.554 86.7913 32.5849C86.2499 31.6158 85.9792 30.5047 85.9792 29.2515C85.9792 27.9749 86.2538 26.8541 86.8029 25.8889C87.352 24.9237 88.1139 24.1706 89.0884 23.6296C90.0629 23.0887 91.1805 22.8182 92.4412 22.8182ZM44.8052 22.8182C45.7256 22.8182 46.5783 22.968 47.3634 23.2677C48.1484 23.5674 48.7807 23.9994 49.2602 24.5637C49.7398 25.128 49.9795 25.8188 49.9795 26.6361V26.8463H47.4852V26.6828L47.484 26.616C47.4706 26.2415 47.3434 25.933 47.1023 25.6904C46.8471 25.4335 46.5165 25.2409 46.1104 25.1124C45.7044 24.984 45.2732 24.9198 44.8168 24.9198C44.3992 24.9198 43.9796 24.9646 43.5581 25.0541C43.1365 25.1436 42.7866 25.2954 42.5081 25.5094C42.2297 25.7235 42.0905 26.0134 42.0905 26.3793C42.0905 26.7529 42.2258 27.0506 42.4965 27.2724C42.7672 27.4943 43.1501 27.6772 43.6451 27.8212C44.1401 27.9652 44.7163 28.0956 45.3737 28.2123C45.977 28.3213 46.5648 28.4595 47.1371 28.6268C47.7095 28.7942 48.2258 29.0141 48.686 29.2865C49.1462 29.5589 49.5135 29.9092 49.7881 30.3373C50.0627 30.7654 50.2 31.2908 50.2 31.9135C50.2 32.5596 50.053 33.1161 49.7591 33.5831C49.4652 34.0502 49.0649 34.4374 48.5583 34.7449C48.0517 35.0523 47.4755 35.282 46.8297 35.4337C46.1839 35.5855 45.5052 35.6614 44.7936 35.6614C44.0589 35.6614 43.3666 35.5797 42.717 35.4162C42.0673 35.2528 41.4969 35.0134 41.0057 34.6982C40.5146 34.3829 40.1317 33.9918 39.8572 33.5248C39.5826 33.0577 39.4453 32.5168 39.4453 31.9018V31.5866H41.9513V31.8201L41.9522 31.8784C41.9696 32.4178 42.2303 32.8285 42.7344 33.1103C43.2564 33.4022 43.9661 33.5481 44.8632 33.5481C45.3892 33.5481 45.8706 33.4936 46.3076 33.3847C46.7446 33.2757 47.0927 33.1083 47.3518 32.8826C47.6109 32.6569 47.7404 32.3689 47.7404 32.0186C47.7404 31.4504 47.4639 31.0456 46.9109 30.8043C46.3579 30.563 45.5207 30.349 44.3992 30.1622C43.7882 30.0532 43.1984 29.9131 42.6299 29.7418C42.0615 29.5706 41.551 29.3429 41.0985 29.0588C40.6461 28.7747 40.2864 28.4206 40.0196 27.9963C39.7528 27.5721 39.6193 27.0603 39.6193 26.461C39.6193 25.6826 39.8514 25.021 40.3154 24.4761C40.7795 23.9313 41.406 23.5187 42.1949 23.2385C42.9838 22.9583 43.8539 22.8182 44.8052 22.8182ZM58.3791 22.8182C59.3149 22.8182 60.1464 22.9602 60.8734 23.2443C61.6004 23.5284 62.2153 23.904 62.718 24.371C63.2208 24.8381 63.6036 25.3518 63.8666 25.9122C64.1296 26.4727 64.2611 27.0331 64.2611 27.5935V27.6753H61.7667L61.766 27.645C61.7645 27.6136 61.7609 27.5789 61.7551 27.541C61.7474 27.4904 61.7397 27.4417 61.7319 27.395C61.67 26.9358 61.4921 26.5271 61.1982 26.1691C60.9043 25.811 60.5176 25.5269 60.0381 25.3168C59.5586 25.1066 58.9978 25.0015 58.3559 25.0015C57.652 25.0015 57.0043 25.1553 56.4126 25.4627C55.8209 25.7702 55.3472 26.2353 54.9914 26.858C54.6356 27.4807 54.4577 28.259 54.4577 29.1931C54.4577 30.1271 54.6337 30.9114 54.9856 31.5457C55.3375 32.1801 55.8093 32.6608 56.401 32.9877C56.9927 33.3146 57.6443 33.4781 58.3559 33.4781C59.1216 33.4781 59.748 33.3594 60.2353 33.122C60.7226 32.8846 61.09 32.5654 61.3375 32.1645C61.585 31.7637 61.728 31.3297 61.7667 30.8627H64.2611L64.2597 30.9617C64.2456 31.4898 64.1184 32.0231 63.8782 32.5615C63.623 33.1336 63.2479 33.6532 62.7529 34.1202C62.2579 34.5873 61.6449 34.9609 60.914 35.2411C60.1831 35.5213 59.3381 35.6614 58.3791 35.6614C57.1416 35.6614 56.0336 35.3987 55.0552 34.8733C54.0768 34.3479 53.3072 33.5987 52.7465 32.6257C52.1858 31.6528 51.9054 30.5086 51.9054 29.1931C51.9054 27.8776 52.1858 26.7431 52.7465 25.7896C53.3072 24.8361 54.0768 24.1025 55.0552 23.5888C56.0336 23.075 57.1416 22.8182 58.3791 22.8182ZM71.9645 22.8182C72.9236 22.8182 73.8053 23.0342 74.6096 23.4662L74.6984 23.515C75.1386 23.7634 75.5294 24.0749 75.8706 24.4494L75.9204 24.5055L75.9206 23.0167H78.4382V35.4162H75.9206L75.9204 34.0044L75.8973 34.0308C75.5272 34.4423 75.098 34.7757 74.6096 35.0309C73.8053 35.4513 72.9236 35.6614 71.9645 35.6614C71.1988 35.6614 70.4582 35.531 69.7428 35.2703C69.0274 35.0095 68.3854 34.6106 67.8169 34.0735C67.2485 33.5364 66.7979 32.8593 66.4653 32.042C66.1328 31.2247 65.9665 30.2595 65.9665 29.1464C65.9665 28.0878 66.1347 27.1615 66.4711 26.3676C66.8076 25.5736 67.262 24.914 67.8343 24.3886C68.4067 23.8631 69.0506 23.4701 69.766 23.2093C70.4814 22.9486 71.2143 22.8182 71.9645 22.8182ZM83.6935 18.6811L83.6937 35.4162H81.2109L81.2107 18.6811H83.6935ZM72.4402 25.0366C71.7827 25.0366 71.1621 25.1708 70.5781 25.4394C69.9942 25.7079 69.5204 26.1438 69.1569 26.747C68.7934 27.3503 68.6116 28.154 68.6116 29.1581C68.6116 30.17 68.7934 30.9911 69.1569 31.6216C69.5204 32.2521 69.9942 32.7133 70.5781 33.0052C71.1621 33.2971 71.7827 33.443 72.4402 33.443C73.0512 33.443 73.6196 33.3068 74.1456 33.0344C74.6715 32.762 75.0988 32.3591 75.4276 31.826C75.7563 31.2928 75.9206 30.6448 75.9206 29.882V28.5276L75.9198 28.4319C75.9066 27.7035 75.7426 27.0913 75.4276 26.5953C75.0988 26.0776 74.6696 25.6884 74.1398 25.4277C73.61 25.1669 73.0434 25.0366 72.4402 25.0366ZM92.4645 24.9198C91.6601 24.9198 90.9543 25.093 90.3472 25.4394C89.74 25.7857 89.2682 26.2761 88.9318 26.9105L88.8906 26.9905C88.7294 27.3129 88.6102 27.667 88.5331 28.0527L88.5184 28.1306H96.0847L96.0845 28.123C96.0469 27.6111 95.9153 27.133 95.6897 26.6887C95.419 26.1555 95.0149 25.7274 94.4773 25.4043C93.9398 25.0813 93.2688 24.9198 92.4645 24.9198Z" fill="white"></path><defs><linearGradient id="paint0_linear_261_2426" x1="0" y1="4.08649" x2="31.9129" y2="35.7968" gradientUnits="userSpaceOnUse"><stop stop-color="#1450FF"></stop><stop offset="1" stop-color="#14B4FF"></stop></linearGradient></defs></svg>